<svg width="32" height="32" viewBox="0 0 32 32" fill="none" xmlns="http://www.w3.org/2000/svg">
<path d="M8.05803 15.131C9.12703 15.131 10.13 15.41 11.002 15.897C12.237 12.88 15.198 10.754 18.659 10.754C18.788 10.754 18.914 10.765 19.041 10.771C19.063 10.378 19 10.061 19 10.061C18.465 7.263 16.009 5.157 13.059 5.155C10.353 5.156 8.09003 6.938 7.32103 9.382C6.90003 9.262 6.45403 9.193 5.99103 9.194C3.20803 9.195 0.952028 11.45 0.952028 14.233C0.951028 15.699 1.58603 17.021 2.58703 17.931C2.58703 17.931 2.72003 18.056 2.82503 18.146C3.87503 16.345 5.82303 15.131 8.05803 15.131Z" stroke="white" stroke-width="1.5" stroke-miterlimit="10" stroke-linecap="round"/>
<path d="M26.746 17.281C25.97 13.672 22.84 10.944 19.042 10.77C18.915 10.764 18.789 10.753 18.66 10.753C15.199 10.753 12.238 12.88 11.003 15.896C10.131 15.41 9.128 15.13 8.059 15.13C5.824 15.13 3.877 16.344 2.827 18.145C2.304 19.041 2 20.078 2 21.189C2 24.535 4.712 27.247 8.058 27.247L26.026 27.237C28.776 27.217 31 24.983 31 22.229C31 19.719 29.153 17.647 26.746 17.281Z" stroke="white" stroke-width="1.5" stroke-miterlimit="10" stroke-linecap="round"/>
</svg>
